<?xml version="1.0" encoding="UTF-8" standalone="no"?>
<!DOCTYPE svg PUBLIC "-//W3C//DTD SVG 1.1//EN"
 "http://www.w3.org/Graphics/SVG/1.1/DTD/svg11.dtd">
<!-- Generated by graphviz version 2.38.0 (20140413.2041)
 -->
<!-- Title: G Pages: 1 -->
<svg width="1098pt" height="532pt"
 viewBox="0.00 0.00 1098.11 531.97" xmlns="http://www.w3.org/2000/svg" xmlns:xlink="http://www.w3.org/1999/xlink">
<g id="graph0" class="graph" transform="scale(1 1) rotate(0) translate(4 527.97)">
<title>G</title>
<polygon fill="white" stroke="none" points="-4,4 -4,-527.97 1094.11,-527.97 1094.11,4 -4,4"/>
<!-- decrypt_blocks\n(0x4015d0) -->
<g id="node1" class="node"><title>decrypt_blocks\n(0x4015d0)</title>
<ellipse fill="none" stroke="black" stroke-width="2" cx="93.3381" cy="-256.87" rx="93.1765" ry="26.7407"/>
<text text-anchor="middle" x="93.3381" y="-260.67" font-family="Monospace" font-size="14.00" fill="blue">decrypt_blocks</text>
<text text-anchor="middle" x="93.3381" y="-245.67" font-family="Monospace" font-size="14.00" fill="blue">(0x4015d0)</text>
</g>
<!-- check_res_121_data\n(0x401000) -->
<g id="node2" class="node"><title>check_res_121_data\n(0x401000)</title>
<ellipse fill="none" stroke="black" cx="339.349" cy="-146.87" rx="116.845" ry="26.7407"/>
<text text-anchor="middle" x="339.349" y="-150.67" font-family="Monospace" font-size="14.00">check_res_121_data</text>
<text text-anchor="middle" x="339.349" y="-135.67" font-family="Monospace" font-size="14.00">(0x401000)</text>
</g>
<!-- decrypt_blocks\n(0x4015d0)&#45;&gt;check_res_121_data\n(0x401000) -->
<g id="edge1" class="edge"><title>decrypt_blocks\n(0x4015d0)&#45;&gt;check_res_121_data\n(0x401000)</title>
<path fill="none" stroke="black" d="M135.438,-232.695C160.233,-218.639 192.723,-201.137 222.676,-187.87 235.06,-182.385 248.426,-177.095 261.524,-172.243"/>
<polygon fill="black" stroke="black" points="262.798,-175.504 270.995,-168.79 260.401,-168.927 262.798,-175.504"/>
</g>
<!-- calc_rc5_key\n(0x4014e0) -->
<g id="node3" class="node"><title>calc_rc5_key\n(0x4014e0)</title>
<ellipse fill="none" stroke="black" cx="339.349" cy="-256.87" rx="82.0488" ry="26.7407"/>
<text text-anchor="middle" x="339.349" y="-260.67" font-family="Monospace" font-size="14.00">calc_rc5_key</text>
<text text-anchor="middle" x="339.349" y="-245.67" font-family="Monospace" font-size="14.00">(0x4014e0)</text>
</g>
<!-- decrypt_blocks\n(0x4015d0)&#45;&gt;calc_rc5_key\n(0x4014e0) -->
<g id="edge2" class="edge"><title>decrypt_blocks\n(0x4015d0)&#45;&gt;calc_rc5_key\n(0x4014e0)</title>
<path fill="none" stroke="black" d="M186.936,-256.87C206.568,-256.87 227.281,-256.87 246.871,-256.87"/>
<polygon fill="black" stroke="black" points="247.002,-260.37 257.002,-256.87 247.002,-253.37 247.002,-260.37"/>
</g>
<!-- RC5Setup\n(0x402a10) -->
<g id="node4" class="node"><title>RC5Setup\n(0x402a10)</title>
<ellipse fill="none" stroke="black" cx="339.349" cy="-400.87" rx="70.0071" ry="26.7407"/>
<text text-anchor="middle" x="339.349" y="-404.67" font-family="Monospace" font-size="14.00">RC5Setup</text>
<text text-anchor="middle" x="339.349" y="-389.67" font-family="Monospace" font-size="14.00">(0x402a10)</text>
</g>
<!-- decrypt_blocks\n(0x4015d0)&#45;&gt;RC5Setup\n(0x402a10) -->
<g id="edge3" class="edge"><title>decrypt_blocks\n(0x4015d0)&#45;&gt;RC5Setup\n(0x402a10)</title>
<path fill="none" stroke="black" d="M119.078,-282.987C143.385,-307.277 182.568,-342.926 222.676,-364.87 237.039,-372.728 253.363,-379.136 269.126,-384.249"/>
<polygon fill="black" stroke="black" points="268.258,-387.645 278.847,-387.267 270.334,-380.959 268.258,-387.645"/>
</g>
<!-- RC5Key\n(0x402ac0) -->
<g id="node5" class="node"><title>RC5Key\n(0x402ac0)</title>
<ellipse fill="none" stroke="black" cx="339.349" cy="-328.87" rx="70.0071" ry="26.7407"/>
<text text-anchor="middle" x="339.349" y="-332.67" font-family="Monospace" font-size="14.00">RC5Key</text>
<text text-anchor="middle" x="339.349" y="-317.67" font-family="Monospace" font-size="14.00">(0x402ac0)</text>
</g>
<!-- decrypt_blocks\n(0x4015d0)&#45;&gt;RC5Key\n(0x402ac0) -->
<g id="edge4" class="edge"><title>decrypt_blocks\n(0x4015d0)&#45;&gt;RC5Key\n(0x402ac0)</title>
<path fill="none" stroke="black" d="M159.088,-275.976C194.449,-286.41 238.11,-299.293 273.489,-309.732"/>
<polygon fill="black" stroke="black" points="272.652,-313.134 283.234,-312.607 274.633,-306.42 272.652,-313.134"/>
</g>
<!-- RC5_decrypt\n(0x402be0) -->
<g id="node6" class="node"><title>RC5_decrypt\n(0x402be0)</title>
<ellipse fill="none" stroke="black" cx="339.349" cy="-26.8701" rx="75.8212" ry="26.7407"/>
<text text-anchor="middle" x="339.349" y="-30.6701" font-family="Monospace" font-size="14.00">RC5_decrypt</text>
<text text-anchor="middle" x="339.349" y="-15.6701" font-family="Monospace" font-size="14.00">(0x402be0)</text>
</g>
<!-- decrypt_blocks\n(0x4015d0)&#45;&gt;RC5_decrypt\n(0x402be0) -->
<g id="edge5" class="edge"><title>decrypt_blocks\n(0x4015d0)&#45;&gt;RC5_decrypt\n(0x402be0)</title>
<path fill="none" stroke="black" d="M105.832,-230.016C124.553,-189.322 165.381,-112.104 222.676,-67.8701 235.386,-58.058 250.636,-50.4699 265.83,-44.6467"/>
<polygon fill="black" stroke="black" points="267.041,-47.9306 275.26,-41.2448 264.666,-41.346 267.041,-47.9306"/>
</g>
<!-- MD5Init\n(0x401fe0) -->
<g id="node7" class="node"><title>MD5Init\n(0x401fe0)</title>
<ellipse fill="none" stroke="black" cx="820.057" cy="-305.87" rx="70.0071" ry="26.7407"/>
<text text-anchor="middle" x="820.057" y="-309.67" font-family="Monospace" font-size="14.00">MD5Init</text>
<text text-anchor="middle" x="820.057" y="-294.67" font-family="Monospace" font-size="14.00">(0x401fe0)</text>
</g>
<!-- decrypt_blocks\n(0x4015d0)&#45;&gt;MD5Init\n(0x401fe0) -->
<g id="edge6" class="edge"><title>decrypt_blocks\n(0x4015d0)&#45;&gt;MD5Init\n(0x401fe0)</title>
<path fill="none" stroke="black" d="M101.76,-283.998C116.173,-330.698 152.848,-425.003 222.676,-463.87 415.263,-571.066 535.004,-525.409 714.053,-396.87 737.786,-379.832 728.401,-361.484 750.053,-341.87 754.351,-337.976 759.148,-334.376 764.155,-331.081"/>
<polygon fill="black" stroke="black" points="766.033,-334.035 772.73,-325.825 762.375,-328.067 766.033,-334.035"/>
</g>
<!-- MD5Update\n(0x402040) -->
<g id="node8" class="node"><title>MD5Update\n(0x402040)</title>
<ellipse fill="none" stroke="black" cx="820.057" cy="-212.87" rx="70.0071" ry="26.7407"/>
<text text-anchor="middle" x="820.057" y="-216.67" font-family="Monospace" font-size="14.00">MD5Update</text>
<text text-anchor="middle" x="820.057" y="-201.67" font-family="Monospace" font-size="14.00">(0x402040)</text>
</g>
<!-- decrypt_blocks\n(0x4015d0)&#45;&gt;MD5Update\n(0x402040) -->
<g id="edge7" class="edge"><title>decrypt_blocks\n(0x4015d0)&#45;&gt;MD5Update\n(0x402040)</title>
<path fill="none" stroke="black" d="M108.25,-230.18C128.194,-195.179 168.56,-135.352 222.676,-110.87 322.181,-65.8547 612.625,-79.3751 714.053,-119.87 745.072,-132.254 772.994,-158.064 792.234,-179.358"/>
<polygon fill="black" stroke="black" points="789.689,-181.764 798.919,-186.966 794.947,-177.143 789.689,-181.764"/>
</g>
<!-- MD5Final\n(0x4020f0) -->
<g id="node9" class="node"><title>MD5Final\n(0x4020f0)</title>
<ellipse fill="none" stroke="black" cx="603.037" cy="-212.87" rx="70.0071" ry="26.7407"/>
<text text-anchor="middle" x="603.037" y="-216.67" font-family="Monospace" font-size="14.00">MD5Final</text>
<text text-anchor="middle" x="603.037" y="-201.67" font-family="Monospace" font-size="14.00">(0x4020f0)</text>
</g>
<!-- decrypt_blocks\n(0x4015d0)&#45;&gt;MD5Final\n(0x4020f0) -->
<g id="edge8" class="edge"><title>decrypt_blocks\n(0x4015d0)&#45;&gt;MD5Final\n(0x4020f0)</title>
<path fill="none" stroke="black" d="M154.695,-236.556C175.933,-230.316 200.129,-224.215 222.676,-220.87 325.731,-205.581 446.237,-206.129 523.302,-208.782"/>
<polygon fill="black" stroke="black" points="523.294,-212.284 533.414,-209.151 523.549,-205.288 523.294,-212.284"/>
</g>
<!-- HMAC_MD5_ntimes\n(0x401170) -->
<g id="node10" class="node"><title>HMAC_MD5_ntimes\n(0x401170)</title>
<ellipse fill="none" stroke="black" cx="603.037" cy="-360.87" rx="98.9899" ry="26.7407"/>
<text text-anchor="middle" x="603.037" y="-364.67" font-family="Monospace" font-size="14.00">HMAC_MD5_ntimes</text>
<text text-anchor="middle" x="603.037" y="-349.67" font-family="Monospace" font-size="14.00">(0x401170)</text>
</g>
<!-- decrypt_blocks\n(0x4015d0)&#45;&gt;HMAC_MD5_ntimes\n(0x401170) -->
<g id="edge9" class="edge"><title>decrypt_blocks\n(0x4015d0)&#45;&gt;HMAC_MD5_ntimes\n(0x401170)</title>
<path fill="none" stroke="black" d="M104.185,-283.901C121.064,-325.69 159.898,-404.529 222.676,-436.87 314.87,-484.365 355.284,-461.517 456.021,-436.87 492.217,-428.014 529.42,-408.464 557.215,-391.41"/>
<polygon fill="black" stroke="black" points="559.276,-394.25 565.896,-385.978 555.562,-388.316 559.276,-394.25"/>
</g>
<!-- check_res_121_data\n(0x401000)&#45;&gt;MD5Init\n(0x401fe0) -->
<g id="edge10" class="edge"><title>check_res_121_data\n(0x401000)&#45;&gt;MD5Init\n(0x401fe0)</title>
<path fill="none" stroke="black" d="M455.427,-144C549.4,-143.83 673.117,-149.245 714.053,-176.87 743.709,-196.883 727.78,-220.872 750.053,-248.87 757.837,-258.655 767.546,-267.92 777.199,-276.026"/>
<polygon fill="black" stroke="black" points="775.278,-278.974 785.252,-282.548 779.684,-273.534 775.278,-278.974"/>
</g>
<!-- check_res_121_data\n(0x401000)&#45;&gt;MD5Update\n(0x402040) -->
<g id="edge11" class="edge"><title>check_res_121_data\n(0x401000)&#45;&gt;MD5Update\n(0x402040)</title>
<path fill="none" stroke="black" d="M434.255,-131.072C511.155,-121.67 621.902,-116.302 714.053,-143.87 739.357,-151.44 764.215,-167.285 783.387,-181.884"/>
<polygon fill="black" stroke="black" points="781.48,-184.835 791.509,-188.252 785.799,-179.327 781.48,-184.835"/>
</g>
<!-- check_res_121_data\n(0x401000)&#45;&gt;MD5Final\n(0x4020f0) -->
<g id="edge12" class="edge"><title>check_res_121_data\n(0x401000)&#45;&gt;MD5Final\n(0x4020f0)</title>
<path fill="none" stroke="black" d="M418.864,-166.672C455.607,-175.939 498.94,-186.868 534.234,-195.769"/>
<polygon fill="black" stroke="black" points="533.41,-199.171 543.963,-198.223 535.122,-192.384 533.41,-199.171"/>
</g>
<!-- calc_rc5_key\n(0x4014e0)&#45;&gt;MD5Init\n(0x401fe0) -->
<g id="edge13" class="edge"><title>calc_rc5_key\n(0x4014e0)&#45;&gt;MD5Init\n(0x401fe0)</title>
<path fill="none" stroke="black" d="M417.794,-264.797C507.1,-273.939 653.02,-288.875 742.114,-297.994"/>
<polygon fill="black" stroke="black" points="741.851,-301.486 752.155,-299.022 742.564,-294.522 741.851,-301.486"/>
</g>
<!-- calc_rc5_key\n(0x4014e0)&#45;&gt;MD5Update\n(0x402040) -->
<g id="edge14" class="edge"><title>calc_rc5_key\n(0x4014e0)&#45;&gt;MD5Update\n(0x402040)</title>
<path fill="none" stroke="black" d="M419.781,-262.203C495.912,-265.664 613.74,-266.694 714.053,-248.87 730.159,-246.008 747.128,-241.087 762.618,-235.785"/>
<polygon fill="black" stroke="black" points="763.789,-239.084 772.05,-232.451 761.456,-232.484 763.789,-239.084"/>
</g>
<!-- calc_rc5_key\n(0x4014e0)&#45;&gt;MD5Final\n(0x4020f0) -->
<g id="edge15" class="edge"><title>calc_rc5_key\n(0x4014e0)&#45;&gt;MD5Final\n(0x4020f0)</title>
<path fill="none" stroke="black" d="M412.549,-244.73C448.641,-238.662 492.24,-231.331 528.513,-225.232"/>
<polygon fill="black" stroke="black" points="529.256,-228.657 538.537,-223.547 528.095,-221.754 529.256,-228.657"/>
</g>
<!-- calc_rc5_key\n(0x4014e0)&#45;&gt;HMAC_MD5_ntimes\n(0x401170) -->
<g id="edge16" class="edge"><title>calc_rc5_key\n(0x4014e0)&#45;&gt;HMAC_MD5_ntimes\n(0x401170)</title>
<path fill="none" stroke="black" d="M405.529,-272.895C422.43,-278.187 440.291,-284.828 456.021,-292.87 473.829,-301.974 474.471,-310.28 492.021,-319.87 503.496,-326.14 516.127,-331.842 528.616,-336.867"/>
<polygon fill="black" stroke="black" points="527.528,-340.2 538.117,-340.576 530.074,-333.679 527.528,-340.2"/>
</g>
<!-- RC5Decrypt_dwords\n(0x402a60) -->
<g id="node11" class="node"><title>RC5Decrypt_dwords\n(0x402a60)</title>
<ellipse fill="none" stroke="black" cx="603.037" cy="-26.8701" rx="111.032" ry="26.7407"/>
<text text-anchor="middle" x="603.037" y="-30.6701" font-family="Monospace" font-size="14.00">RC5Decrypt_dwords</text>
<text text-anchor="middle" x="603.037" y="-15.6701" font-family="Monospace" font-size="14.00">(0x402a60)</text>
</g>
<!-- RC5_decrypt\n(0x402be0)&#45;&gt;RC5Decrypt_dwords\n(0x402a60) -->
<g id="edge17" class="edge"><title>RC5_decrypt\n(0x402be0)&#45;&gt;RC5Decrypt_dwords\n(0x402a60)</title>
<path fill="none" stroke="black" d="M415.338,-26.8701C436.125,-26.8701 459.228,-26.8701 481.898,-26.8701"/>
<polygon fill="black" stroke="black" points="481.926,-30.3702 491.926,-26.8701 481.926,-23.3702 481.926,-30.3702"/>
</g>
<!-- MD5Transform\n(0x4021a0) -->
<g id="node12" class="node"><title>MD5Transform\n(0x4021a0)</title>
<ellipse fill="none" stroke="black" cx="1008.08" cy="-212.87" rx="82.0488" ry="26.7407"/>
<text text-anchor="middle" x="1008.08" y="-216.67" font-family="Monospace" font-size="14.00">MD5Transform</text>
<text text-anchor="middle" x="1008.08" y="-201.67" font-family="Monospace" font-size="14.00">(0x4021a0)</text>
</g>
<!-- MD5Update\n(0x402040)&#45;&gt;MD5Transform\n(0x4021a0) -->
<g id="edge18" class="edge"><title>MD5Update\n(0x402040)&#45;&gt;MD5Transform\n(0x4021a0)</title>
<path fill="none" stroke="black" d="M890.062,-212.87C898.46,-212.87 907.139,-212.87 915.797,-212.87"/>
<polygon fill="black" stroke="black" points="915.934,-216.37 925.934,-212.87 915.934,-209.37 915.934,-216.37"/>
</g>
<!-- MD5Final\n(0x4020f0)&#45;&gt;MD5Update\n(0x402040) -->
<g id="edge19" class="edge"><title>MD5Final\n(0x4020f0)&#45;&gt;MD5Update\n(0x402040)</title>
<path fill="none" stroke="black" d="M673.254,-212.87C694.451,-212.87 717.932,-212.87 739.746,-212.87"/>
<polygon fill="black" stroke="black" points="739.969,-216.37 749.969,-212.87 739.969,-209.37 739.969,-216.37"/>
</g>
<!-- HMAC_MD5_ntimes\n(0x401170)&#45;&gt;MD5Init\n(0x401fe0) -->
<g id="edge21" class="edge"><title>HMAC_MD5_ntimes\n(0x401170)&#45;&gt;MD5Init\n(0x401fe0)</title>
<path fill="none" stroke="black" d="M675.636,-342.556C700.117,-336.294 727.404,-329.314 751.552,-323.137"/>
<polygon fill="black" stroke="black" points="752.517,-326.503 761.338,-320.634 750.783,-319.721 752.517,-326.503"/>
</g>
<!-- HMAC_MD5_ntimes\n(0x401170)&#45;&gt;MD5Update\n(0x402040) -->
<g id="edge22" class="edge"><title>HMAC_MD5_ntimes\n(0x401170)&#45;&gt;MD5Update\n(0x402040)</title>
<path fill="none" stroke="black" d="M640.512,-335.764C678.051,-309.925 736.504,-269.692 776.219,-242.355"/>
<polygon fill="black" stroke="black" points="778.639,-244.939 784.891,-236.386 774.67,-239.173 778.639,-244.939"/>
</g>
<!-- HMAC_MD5\n(0x402870) -->
<g id="node13" class="node"><title>HMAC_MD5\n(0x402870)</title>
<ellipse fill="none" stroke="black" cx="820.057" cy="-377.87" rx="70.0071" ry="26.7407"/>
<text text-anchor="middle" x="820.057" y="-381.67" font-family="Monospace" font-size="14.00">HMAC_MD5</text>
<text text-anchor="middle" x="820.057" y="-366.67" font-family="Monospace" font-size="14.00">(0x402870)</text>
</g>
<!-- HMAC_MD5_ntimes\n(0x401170)&#45;&gt;HMAC_MD5\n(0x402870) -->
<g id="edge20" class="edge"><title>HMAC_MD5_ntimes\n(0x401170)&#45;&gt;HMAC_MD5\n(0x402870)</title>
<path fill="none" stroke="black" d="M698.348,-368.327C712.694,-369.461 727.359,-370.62 741.299,-371.722"/>
<polygon fill="black" stroke="black" points="741.062,-375.214 751.307,-372.514 741.614,-368.236 741.062,-375.214"/>
</g>
</g>
</svg>
