<?xml version="1.0" encoding="UTF-8" standalone="no"?>
<!DOCTYPE svg PUBLIC "-//W3C//DTD SVG 1.1//EN"
 "http://www.w3.org/Graphics/SVG/1.1/DTD/svg11.dtd">
<!-- Generated by graphviz version 2.38.0 (20140413.2041)
 -->
<!-- Title: G Pages: 1 -->
<svg width="781pt" height="440pt"
 viewBox="0.00 0.00 781.45 440.00" xmlns="http://www.w3.org/2000/svg" xmlns:xlink="http://www.w3.org/1999/xlink">
<g id="graph0" class="graph" transform="scale(1 1) rotate(0) translate(4 436)">
<title>G</title>
<polygon fill="white" stroke="none" points="-4,4 -4,-436 777.45,-436 777.45,4 -4,4"/>
<!-- main\n(0x401f60) -->
<g id="node1" class="node"><title>main\n(0x401f60)</title>
<ellipse fill="none" stroke="black" stroke-width="2" cx="70.0036" cy="-225" rx="70.0071" ry="26.7407"/>
<text text-anchor="middle" x="70.0036" y="-228.8" font-family="Monospace" font-size="14.00" fill="blue">main</text>
<text text-anchor="middle" x="70.0036" y="-213.8" font-family="Monospace" font-size="14.00" fill="blue">(0x401f60)</text>
</g>
<!-- CreateFileW -->
<g id="node2" class="node"><title>CreateFileW</title>
<polygon fill="none" stroke="black" points="381.535,-378 274.535,-378 274.535,-342 381.535,-342 381.535,-378"/>
<text text-anchor="middle" x="328.035" y="-356.3" font-family="Monospace" font-size="14.00" fill="green">CreateFileW</text>
</g>
<!-- main\n(0x401f60)&#45;&gt;CreateFileW -->
<g id="edge1" class="edge"><title>main\n(0x401f60)&#45;&gt;CreateFileW</title>
<path fill="none" stroke="black" d="M88.9883,-251.367C107.672,-276.559 139.284,-313.498 176.007,-333 202.93,-347.297 235.964,-354.208 264.266,-357.478"/>
<polygon fill="black" stroke="black" points="264.153,-360.985 274.458,-358.525 264.869,-354.021 264.153,-360.985"/>
</g>
<!-- atoi\n(0x402e77) -->
<g id="node3" class="node"><title>atoi\n(0x402e77)</title>
<ellipse fill="none" stroke="black" cx="328.035" cy="-297" rx="70.0071" ry="26.7407"/>
<text text-anchor="middle" x="328.035" y="-300.8" font-family="Monospace" font-size="14.00">atoi</text>
<text text-anchor="middle" x="328.035" y="-285.8" font-family="Monospace" font-size="14.00">(0x402e77)</text>
</g>
<!-- main\n(0x401f60)&#45;&gt;atoi\n(0x402e77) -->
<g id="edge2" class="edge"><title>main\n(0x401f60)&#45;&gt;atoi\n(0x402e77)</title>
<path fill="none" stroke="black" d="M121.428,-243.388C138.629,-249.367 158.053,-255.796 176.007,-261 202.062,-268.553 230.972,-275.731 256.466,-281.662"/>
<polygon fill="black" stroke="black" points="255.893,-285.121 266.423,-283.955 257.464,-278.3 255.893,-285.121"/>
</g>
<!-- decrypt_and_write_secret\n(0x401910) -->
<g id="node4" class="node"><title>decrypt_and_write_secret\n(0x401910)</title>
<ellipse fill="none" stroke="black" cx="328.035" cy="-225" rx="152.056" ry="26.7407"/>
<text text-anchor="middle" x="328.035" y="-228.8" font-family="Monospace" font-size="14.00">decrypt_and_write_secret</text>
<text text-anchor="middle" x="328.035" y="-213.8" font-family="Monospace" font-size="14.00">(0x401910)</text>
</g>
<!-- main\n(0x401f60)&#45;&gt;decrypt_and_write_secret\n(0x401910) -->
<g id="edge3" class="edge"><title>main\n(0x401f60)&#45;&gt;decrypt_and_write_secret\n(0x401910)</title>
<path fill="none" stroke="black" d="M140.289,-225C148.467,-225 157.053,-225 165.864,-225"/>
<polygon fill="black" stroke="black" points="165.897,-228.5 175.897,-225 165.897,-221.5 165.897,-228.5"/>
</g>
<!-- print_string\n(0x402dc8) -->
<g id="node5" class="node"><title>print_string\n(0x402dc8)</title>
<ellipse fill="none" stroke="black" cx="328.035" cy="-153" rx="82.0488" ry="26.7407"/>
<text text-anchor="middle" x="328.035" y="-156.8" font-family="Monospace" font-size="14.00">print_string</text>
<text text-anchor="middle" x="328.035" y="-141.8" font-family="Monospace" font-size="14.00">(0x402dc8)</text>
</g>
<!-- main\n(0x401f60)&#45;&gt;print_string\n(0x402dc8) -->
<g id="edge4" class="edge"><title>main\n(0x401f60)&#45;&gt;print_string\n(0x402dc8)</title>
<path fill="none" stroke="black" d="M121.428,-206.612C138.629,-200.633 158.053,-194.204 176.007,-189 199.566,-182.171 225.46,-175.648 249.051,-170.076"/>
<polygon fill="black" stroke="black" points="250.067,-173.433 259.008,-167.749 248.473,-166.617 250.067,-173.433"/>
</g>
<!-- CloseHandle -->
<g id="node6" class="node"><title>CloseHandle</title>
<polygon fill="none" stroke="black" points="381.535,-108 274.535,-108 274.535,-72 381.535,-72 381.535,-108"/>
<text text-anchor="middle" x="328.035" y="-86.3" font-family="Monospace" font-size="14.00" fill="green">CloseHandle</text>
</g>
<!-- main\n(0x401f60)&#45;&gt;CloseHandle -->
<g id="edge5" class="edge"><title>main\n(0x401f60)&#45;&gt;CloseHandle</title>
<path fill="none" stroke="black" d="M88.9883,-198.633C107.672,-173.441 139.284,-136.502 176.007,-117 202.93,-102.703 235.964,-95.7924 264.266,-92.522"/>
<polygon fill="black" stroke="black" points="264.869,-95.9785 274.458,-91.4748 264.153,-89.0152 264.869,-95.9785"/>
</g>
<!-- SizeofResource -->
<g id="node7" class="node"><title>SizeofResource</title>
<polygon fill="none" stroke="black" points="710.756,-432 578.756,-432 578.756,-396 710.756,-396 710.756,-432"/>
<text text-anchor="middle" x="644.756" y="-410.3" font-family="Monospace" font-size="14.00" fill="green">SizeofResource</text>
</g>
<!-- decrypt_and_write_secret\n(0x401910)&#45;&gt;SizeofResource -->
<g id="edge6" class="edge"><title>decrypt_and_write_secret\n(0x401910)&#45;&gt;SizeofResource</title>
<path fill="none" stroke="black" d="M450.211,-241.136C461.178,-246.211 471.396,-252.708 480.063,-261 522.148,-301.26 473.466,-347.282 516.063,-387 530.387,-400.356 549.596,-407.771 568.757,-411.735"/>
<polygon fill="black" stroke="black" points="568.289,-415.206 578.746,-413.506 569.511,-408.314 568.289,-415.206"/>
</g>
<!-- read_res_data\n(0x401570) -->
<g id="node8" class="node"><title>read_res_data\n(0x401570)</title>
<ellipse fill="none" stroke="black" cx="644.756" cy="-351" rx="87.8629" ry="26.7407"/>
<text text-anchor="middle" x="644.756" y="-354.8" font-family="Monospace" font-size="14.00">read_res_data</text>
<text text-anchor="middle" x="644.756" y="-339.8" font-family="Monospace" font-size="14.00">(0x401570)</text>
</g>
<!-- decrypt_and_write_secret\n(0x401910)&#45;&gt;read_res_data\n(0x401570) -->
<g id="edge7" class="edge"><title>decrypt_and_write_secret\n(0x401910)&#45;&gt;read_res_data\n(0x401570)</title>
<path fill="none" stroke="black" d="M443.935,-242.597C456.753,-247.351 469.115,-253.374 480.063,-261 503.732,-277.486 492.735,-298.035 516.063,-315 528.211,-323.835 542.457,-330.505 556.942,-335.539"/>
<polygon fill="black" stroke="black" points="555.885,-338.876 566.477,-338.618 558.036,-332.214 555.885,-338.876"/>
</g>
<!-- FindResourceW -->
<g id="node9" class="node"><title>FindResourceW</title>
<polygon fill="none" stroke="black" points="706.756,-306 582.756,-306 582.756,-270 706.756,-270 706.756,-306"/>
<text text-anchor="middle" x="644.756" y="-284.3" font-family="Monospace" font-size="14.00" fill="green">FindResourceW</text>
</g>
<!-- decrypt_and_write_secret\n(0x401910)&#45;&gt;FindResourceW -->
<g id="edge8" class="edge"><title>decrypt_and_write_secret\n(0x401910)&#45;&gt;FindResourceW</title>
<path fill="none" stroke="black" d="M429.48,-245.107C476.112,-254.441 530.45,-265.319 572.739,-273.784"/>
<polygon fill="black" stroke="black" points="572.174,-277.24 582.667,-275.771 573.548,-270.376 572.174,-277.24"/>
</g>
<!-- init_crypto_provider\n(0x401090) -->
<g id="node10" class="node"><title>init_crypto_provider\n(0x401090)</title>
<ellipse fill="none" stroke="black" cx="644.756" cy="-225" rx="128.887" ry="26.7407"/>
<text text-anchor="middle" x="644.756" y="-228.8" font-family="Monospace" font-size="14.00">init_crypto_provider</text>
<text text-anchor="middle" x="644.756" y="-213.8" font-family="Monospace" font-size="14.00">(0x401090)</text>
</g>
<!-- decrypt_and_write_secret\n(0x401910)&#45;&gt;init_crypto_provider\n(0x401090) -->
<g id="edge9" class="edge"><title>decrypt_and_write_secret\n(0x401910)&#45;&gt;init_crypto_provider\n(0x401090)</title>
<path fill="none" stroke="black" d="M480.404,-225C488.8,-225 497.22,-225 505.566,-225"/>
<polygon fill="black" stroke="black" points="505.704,-228.5 515.704,-225 505.704,-221.5 505.704,-228.5"/>
</g>
<!-- decrypt_blocks\n(0x4015d0) -->
<g id="node11" class="node"><title>decrypt_blocks\n(0x4015d0)</title>
<ellipse fill="none" stroke="black" cx="644.756" cy="-153" rx="93.1765" ry="26.7407"/>
<text text-anchor="middle" x="644.756" y="-156.8" font-family="Monospace" font-size="14.00">decrypt_blocks</text>
<text text-anchor="middle" x="644.756" y="-141.8" font-family="Monospace" font-size="14.00">(0x4015d0)</text>
</g>
<!-- decrypt_and_write_secret\n(0x401910)&#45;&gt;decrypt_blocks\n(0x4015d0) -->
<g id="edge10" class="edge"><title>decrypt_and_write_secret\n(0x401910)&#45;&gt;decrypt_blocks\n(0x4015d0)</title>
<path fill="none" stroke="black" d="M421.76,-203.787C466,-193.666 518.491,-181.658 561.321,-171.859"/>
<polygon fill="black" stroke="black" points="562.178,-175.254 571.146,-169.611 560.617,-168.43 562.178,-175.254"/>
</g>
<!-- write_secret\n(0x401cf0) -->
<g id="node12" class="node"><title>write_secret\n(0x401cf0)</title>
<ellipse fill="none" stroke="black" cx="644.756" cy="-81" rx="82.0488" ry="26.7407"/>
<text text-anchor="middle" x="644.756" y="-84.8" font-family="Monospace" font-size="14.00">write_secret</text>
<text text-anchor="middle" x="644.756" y="-69.8" font-family="Monospace" font-size="14.00">(0x401cf0)</text>
</g>
<!-- decrypt_and_write_secret\n(0x401910)&#45;&gt;write_secret\n(0x401cf0) -->
<g id="edge11" class="edge"><title>decrypt_and_write_secret\n(0x401910)&#45;&gt;write_secret\n(0x401cf0)</title>
<path fill="none" stroke="black" d="M446.432,-208.092C458.524,-203.2 470.032,-196.957 480.063,-189 508.093,-166.767 488.492,-139.8 516.063,-117 528.41,-106.789 543.476,-99.4693 558.871,-94.2233"/>
<polygon fill="black" stroke="black" points="559.979,-97.5441 568.477,-91.2176 557.888,-90.8634 559.979,-97.5441"/>
</g>
<!-- CryptReleaseContext -->
<g id="node13" class="node"><title>CryptReleaseContext</title>
<polygon fill="none" stroke="black" points="731.256,-36 558.256,-36 558.256,-0 731.256,-0 731.256,-36"/>
<text text-anchor="middle" x="644.756" y="-14.3" font-family="Monospace" font-size="14.00" fill="green">CryptReleaseContext</text>
</g>
<!-- decrypt_and_write_secret\n(0x401910)&#45;&gt;CryptReleaseContext -->
<g id="edge12" class="edge"><title>decrypt_and_write_secret\n(0x401910)&#45;&gt;CryptReleaseContext</title>
<path fill="none" stroke="black" d="M450.864,-208.984C461.636,-203.877 471.631,-197.34 480.063,-189 526.966,-142.609 468.57,-90.7861 516.063,-45 525.202,-36.1895 536.457,-29.9421 548.463,-25.5579"/>
<polygon fill="black" stroke="black" points="549.773,-28.8136 558.227,-22.428 547.636,-22.1477 549.773,-28.8136"/>
</g>
</g>
</svg>
