<?xml version="1.0" encoding="UTF-8" standalone="no"?>
<!DOCTYPE svg PUBLIC "-//W3C//DTD SVG 1.1//EN"
 "http://www.w3.org/Graphics/SVG/1.1/DTD/svg11.dtd">
<!-- Generated by graphviz version 2.38.0 (20140413.2041)
 -->
<!-- Title: G Pages: 1 -->
<svg width="641pt" height="552pt"
 viewBox="0.00 0.00 641.44 552.00" xmlns="http://www.w3.org/2000/svg" xmlns:xlink="http://www.w3.org/1999/xlink">
<g id="graph0" class="graph" transform="scale(1 1) rotate(0) translate(4 548)">
<title>G</title>
<polygon fill="white" stroke="none" points="-4,4 -4,-548 637.443,-548 637.443,4 -4,4"/>
<!-- write_secret\n(0x401cf0) -->
<g id="node1" class="node"><title>write_secret\n(0x401cf0)</title>
<ellipse fill="none" stroke="black" stroke-width="2" cx="82.0244" cy="-228" rx="82.0488" ry="26.7407"/>
<text text-anchor="middle" x="82.0244" y="-231.8" font-family="Monospace" font-size="14.00" fill="blue">write_secret</text>
<text text-anchor="middle" x="82.0244" y="-216.8" font-family="Monospace" font-size="14.00" fill="blue">(0x401cf0)</text>
</g>
<!-- SizeofResource -->
<g id="node2" class="node"><title>SizeofResource</title>
<polygon fill="none" stroke="black" points="588.427,-544 456.427,-544 456.427,-508 588.427,-508 588.427,-544"/>
<text text-anchor="middle" x="522.427" y="-522.3" font-family="Monospace" font-size="14.00" fill="green">SizeofResource</text>
</g>
<!-- write_secret\n(0x401cf0)&#45;&gt;SizeofResource -->
<g id="edge1" class="edge"><title>write_secret\n(0x401cf0)&#45;&gt;SizeofResource</title>
<path fill="none" stroke="black" d="M86.6832,-255.16C95.476,-308.852 123.095,-428.277 200.049,-485 271.037,-537.326 375.621,-540.936 446.021,-535.876"/>
<polygon fill="black" stroke="black" points="446.46,-539.352 456.152,-535.071 445.906,-532.374 446.46,-539.352"/>
</g>
<!-- read_res_data\n(0x401570) -->
<g id="node3" class="node"><title>read_res_data\n(0x401570)</title>
<ellipse fill="none" stroke="black" cx="287.73" cy="-449" rx="87.8629" ry="26.7407"/>
<text text-anchor="middle" x="287.73" y="-452.8" font-family="Monospace" font-size="14.00">read_res_data</text>
<text text-anchor="middle" x="287.73" y="-437.8" font-family="Monospace" font-size="14.00">(0x401570)</text>
</g>
<!-- write_secret\n(0x401cf0)&#45;&gt;read_res_data\n(0x401570) -->
<g id="edge2" class="edge"><title>write_secret\n(0x401cf0)&#45;&gt;read_res_data\n(0x401570)</title>
<path fill="none" stroke="black" d="M97.9442,-254.484C118.079,-288.696 156.486,-348.851 200.049,-391 210.833,-401.435 223.719,-411.192 236.216,-419.616"/>
<polygon fill="black" stroke="black" points="234.493,-422.672 244.775,-425.228 238.332,-416.818 234.493,-422.672"/>
</g>
<!-- calc_index\n(0x401b60) -->
<g id="node4" class="node"><title>calc_index\n(0x401b60)</title>
<ellipse fill="none" stroke="black" cx="287.73" cy="-355" rx="70.0071" ry="26.7407"/>
<text text-anchor="middle" x="287.73" y="-358.8" font-family="Monospace" font-size="14.00">calc_index</text>
<text text-anchor="middle" x="287.73" y="-343.8" font-family="Monospace" font-size="14.00">(0x401b60)</text>
</g>
<!-- write_secret\n(0x401cf0)&#45;&gt;calc_index\n(0x401b60) -->
<g id="edge3" class="edge"><title>write_secret\n(0x401cf0)&#45;&gt;calc_index\n(0x401b60)</title>
<path fill="none" stroke="black" d="M111.29,-253.493C134.081,-273.153 167.577,-300.092 200.049,-319 208.41,-323.869 217.555,-328.415 226.672,-332.528"/>
<polygon fill="black" stroke="black" points="225.562,-335.862 236.127,-336.651 228.36,-329.445 225.562,-335.862"/>
</g>
<!-- RC5_init\n(0x4010f0) -->
<g id="node5" class="node"><title>RC5_init\n(0x4010f0)</title>
<ellipse fill="none" stroke="black" cx="287.73" cy="-119" rx="70.0071" ry="26.7407"/>
<text text-anchor="middle" x="287.73" y="-122.8" font-family="Monospace" font-size="14.00">RC5_init</text>
<text text-anchor="middle" x="287.73" y="-107.8" font-family="Monospace" font-size="14.00">(0x4010f0)</text>
</g>
<!-- write_secret\n(0x401cf0)&#45;&gt;RC5_init\n(0x4010f0) -->
<g id="edge4" class="edge"><title>write_secret\n(0x401cf0)&#45;&gt;RC5_init\n(0x4010f0)</title>
<path fill="none" stroke="black" d="M118.503,-203.738C141.257,-188.719 171.737,-169.585 200.049,-155 208.958,-150.411 218.589,-145.949 228.081,-141.818"/>
<polygon fill="black" stroke="black" points="229.668,-144.946 237.495,-137.805 226.923,-138.507 229.668,-144.946"/>
</g>
<!-- RC5_decrypt\n(0x402be0) -->
<g id="node6" class="node"><title>RC5_decrypt\n(0x402be0)</title>
<ellipse fill="none" stroke="black" cx="287.73" cy="-283" rx="75.8212" ry="26.7407"/>
<text text-anchor="middle" x="287.73" y="-286.8" font-family="Monospace" font-size="14.00">RC5_decrypt</text>
<text text-anchor="middle" x="287.73" y="-271.8" font-family="Monospace" font-size="14.00">(0x402be0)</text>
</g>
<!-- write_secret\n(0x401cf0)&#45;&gt;RC5_decrypt\n(0x402be0) -->
<g id="edge5" class="edge"><title>write_secret\n(0x401cf0)&#45;&gt;RC5_decrypt\n(0x402be0)</title>
<path fill="none" stroke="black" d="M145.805,-244.951C168.411,-251.054 194.043,-257.975 217.192,-264.225"/>
<polygon fill="black" stroke="black" points="216.377,-267.63 226.944,-266.858 218.202,-260.872 216.377,-267.63"/>
</g>
<!-- FindResourceW -->
<g id="node7" class="node"><title>FindResourceW</title>
<polygon fill="none" stroke="black" points="349.73,-200 225.73,-200 225.73,-164 349.73,-164 349.73,-200"/>
<text text-anchor="middle" x="287.73" y="-178.3" font-family="Monospace" font-size="14.00" fill="green">FindResourceW</text>
</g>
<!-- write_secret\n(0x401cf0)&#45;&gt;FindResourceW -->
<g id="edge6" class="edge"><title>write_secret\n(0x401cf0)&#45;&gt;FindResourceW</title>
<path fill="none" stroke="black" d="M150.007,-212.874C171.03,-208.127 194.306,-202.871 215.605,-198.061"/>
<polygon fill="black" stroke="black" points="216.575,-201.43 225.559,-195.813 215.033,-194.602 216.575,-201.43"/>
</g>
<!-- RC5Setup\n(0x402a10) -->
<g id="node8" class="node"><title>RC5Setup\n(0x402a10)</title>
<ellipse fill="none" stroke="black" cx="522.427" cy="-138" rx="70.0071" ry="26.7407"/>
<text text-anchor="middle" x="522.427" y="-141.8" font-family="Monospace" font-size="14.00">RC5Setup</text>
<text text-anchor="middle" x="522.427" y="-126.8" font-family="Monospace" font-size="14.00">(0x402a10)</text>
</g>
<!-- write_secret\n(0x401cf0)&#45;&gt;RC5Setup\n(0x402a10) -->
<g id="edge7" class="edge"><title>write_secret\n(0x401cf0)&#45;&gt;RC5Setup\n(0x402a10)</title>
<path fill="none" stroke="black" d="M159.622,-236.843C220.626,-240.698 306.858,-238.866 375.411,-209 395.588,-200.21 392.542,-186.327 411.411,-175 424.256,-167.29 438.918,-160.937 453.26,-155.804"/>
<polygon fill="black" stroke="black" points="454.776,-158.985 463.111,-152.443 452.516,-152.36 454.776,-158.985"/>
</g>
<!-- RC5Key\n(0x402ac0) -->
<g id="node9" class="node"><title>RC5Key\n(0x402ac0)</title>
<ellipse fill="none" stroke="black" cx="522.427" cy="-65" rx="70.0071" ry="26.7407"/>
<text text-anchor="middle" x="522.427" y="-68.8" font-family="Monospace" font-size="14.00">RC5Key</text>
<text text-anchor="middle" x="522.427" y="-53.8" font-family="Monospace" font-size="14.00">(0x402ac0)</text>
</g>
<!-- write_secret\n(0x401cf0)&#45;&gt;RC5Key\n(0x402ac0) -->
<g id="edge8" class="edge"><title>write_secret\n(0x401cf0)&#45;&gt;RC5Key\n(0x402ac0)</title>
<path fill="none" stroke="black" d="M95.6284,-201.396C113.486,-167.106 149.675,-108.833 200.049,-83 277.616,-43.2216 379.981,-45.2373 448.122,-52.8828"/>
<polygon fill="black" stroke="black" points="447.993,-56.3922 458.337,-54.0999 448.822,-49.4413 447.993,-56.3922"/>
</g>
<!-- WriteFile -->
<g id="node10" class="node"><title>WriteFile</title>
<polygon fill="none" stroke="black" points="333.23,-36 242.23,-36 242.23,-0 333.23,-0 333.23,-36"/>
<text text-anchor="middle" x="287.73" y="-14.3" font-family="Monospace" font-size="14.00" fill="green">WriteFile</text>
</g>
<!-- write_secret\n(0x401cf0)&#45;&gt;WriteFile -->
<g id="edge9" class="edge"><title>write_secret\n(0x401cf0)&#45;&gt;WriteFile</title>
<path fill="none" stroke="black" d="M94.0616,-201.201C111.248,-162.59 147.929,-91.4133 200.049,-50 209.566,-42.4374 221.045,-36.5481 232.49,-32.004"/>
<polygon fill="black" stroke="black" points="233.868,-35.2264 242.051,-28.4963 231.457,-28.6546 233.868,-35.2264"/>
</g>
<!-- read_res_data\n(0x401570)&#45;&gt;SizeofResource -->
<g id="edge10" class="edge"><title>read_res_data\n(0x401570)&#45;&gt;SizeofResource</title>
<path fill="none" stroke="black" d="M338.255,-471.115C360.365,-480.483 386.91,-491.048 411.411,-499 422.664,-502.652 434.703,-506.079 446.538,-509.184"/>
<polygon fill="black" stroke="black" points="445.853,-512.622 456.409,-511.715 447.592,-505.841 445.853,-512.622"/>
</g>
<!-- LoadResource -->
<g id="node11" class="node"><title>LoadResource</title>
<polygon fill="none" stroke="black" points="580.427,-490 464.427,-490 464.427,-454 580.427,-454 580.427,-490"/>
<text text-anchor="middle" x="522.427" y="-468.3" font-family="Monospace" font-size="14.00" fill="green">LoadResource</text>
</g>
<!-- read_res_data\n(0x401570)&#45;&gt;LoadResource -->
<g id="edge11" class="edge"><title>read_res_data\n(0x401570)&#45;&gt;LoadResource</title>
<path fill="none" stroke="black" d="M371.425,-457.174C398.527,-459.852 428.293,-462.795 454.115,-465.347"/>
<polygon fill="black" stroke="black" points="453.879,-468.84 464.175,-466.341 454.567,-461.874 453.879,-468.84"/>
</g>
<!-- LockResource -->
<g id="node12" class="node"><title>LockResource</title>
<polygon fill="none" stroke="black" points="580.427,-436 464.427,-436 464.427,-400 580.427,-400 580.427,-436"/>
<text text-anchor="middle" x="522.427" y="-414.3" font-family="Monospace" font-size="14.00" fill="green">LockResource</text>
</g>
<!-- read_res_data\n(0x401570)&#45;&gt;LockResource -->
<g id="edge12" class="edge"><title>read_res_data\n(0x401570)&#45;&gt;LockResource</title>
<path fill="none" stroke="black" d="M368.486,-438.375C396.368,-434.66 427.371,-430.53 454.135,-426.965"/>
<polygon fill="black" stroke="black" points="454.719,-430.418 464.169,-425.628 453.795,-423.479 454.719,-430.418"/>
</g>
<!-- raise_exception\n(0x403d7f) -->
<g id="node13" class="node"><title>raise_exception\n(0x403d7f)</title>
<ellipse fill="none" stroke="black" cx="522.427" cy="-355" rx="98.9899" ry="26.7407"/>
<text text-anchor="middle" x="522.427" y="-358.8" font-family="Monospace" font-size="14.00">raise_exception</text>
<text text-anchor="middle" x="522.427" y="-343.8" font-family="Monospace" font-size="14.00">(0x403d7f)</text>
</g>
<!-- calc_index\n(0x401b60)&#45;&gt;raise_exception\n(0x403d7f) -->
<g id="edge13" class="edge"><title>calc_index\n(0x401b60)&#45;&gt;raise_exception\n(0x403d7f)</title>
<path fill="none" stroke="black" d="M357.917,-355C375.292,-355 394.355,-355 413.138,-355"/>
<polygon fill="black" stroke="black" points="413.226,-358.5 423.226,-355 413.226,-351.5 413.226,-358.5"/>
</g>
<!-- count_bits_set\n(0x401b20) -->
<g id="node14" class="node"><title>count_bits_set\n(0x401b20)</title>
<ellipse fill="none" stroke="black" cx="522.427" cy="-283" rx="93.1765" ry="26.7407"/>
<text text-anchor="middle" x="522.427" y="-286.8" font-family="Monospace" font-size="14.00">count_bits_set</text>
<text text-anchor="middle" x="522.427" y="-271.8" font-family="Monospace" font-size="14.00">(0x401b20)</text>
</g>
<!-- calc_index\n(0x401b60)&#45;&gt;count_bits_set\n(0x401b20) -->
<g id="edge14" class="edge"><title>calc_index\n(0x401b60)&#45;&gt;count_bits_set\n(0x401b20)</title>
<path fill="none" stroke="black" d="M342.7,-338.301C374.105,-328.584 414.118,-316.203 448.32,-305.621"/>
<polygon fill="black" stroke="black" points="449.745,-308.843 458.264,-302.544 447.676,-302.156 449.745,-308.843"/>
</g>
<!-- RC5_init\n(0x4010f0)&#45;&gt;RC5Setup\n(0x402a10) -->
<g id="edge15" class="edge"><title>RC5_init\n(0x4010f0)&#45;&gt;RC5Setup\n(0x402a10)</title>
<path fill="none" stroke="black" d="M356.348,-124.521C383.597,-126.746 415.198,-129.326 443.413,-131.63"/>
<polygon fill="black" stroke="black" points="443.388,-135.14 453.64,-132.465 443.958,-128.163 443.388,-135.14"/>
</g>
<!-- RC5_init\n(0x4010f0)&#45;&gt;RC5Key\n(0x402ac0) -->
<g id="edge16" class="edge"><title>RC5_init\n(0x4010f0)&#45;&gt;RC5Key\n(0x402ac0)</title>
<path fill="none" stroke="black" d="M348.051,-105.234C379.779,-97.871 419.023,-88.764 452.146,-81.0774"/>
<polygon fill="black" stroke="black" points="453.264,-84.4111 462.214,-78.7411 451.682,-77.5923 453.264,-84.4111"/>
</g>
<!-- RC5Decrypt_dwords\n(0x402a60) -->
<g id="node15" class="node"><title>RC5Decrypt_dwords\n(0x402a60)</title>
<ellipse fill="none" stroke="black" cx="522.427" cy="-211" rx="111.032" ry="26.7407"/>
<text text-anchor="middle" x="522.427" y="-214.8" font-family="Monospace" font-size="14.00">RC5Decrypt_dwords</text>
<text text-anchor="middle" x="522.427" y="-199.8" font-family="Monospace" font-size="14.00">(0x402a60)</text>
</g>
<!-- RC5_decrypt\n(0x402be0)&#45;&gt;RC5Decrypt_dwords\n(0x402a60) -->
<g id="edge17" class="edge"><title>RC5_decrypt\n(0x402be0)&#45;&gt;RC5Decrypt_dwords\n(0x402a60)</title>
<path fill="none" stroke="black" d="M345.357,-265.479C374.86,-256.35 411.394,-245.046 443.522,-235.105"/>
<polygon fill="black" stroke="black" points="444.819,-238.367 453.338,-232.068 442.75,-231.68 444.819,-238.367"/>
</g>
</g>
</svg>
