<?xml version="1.0" encoding="UTF-8" standalone="no"?>
<!-- Created with Inkscape (http://www.inkscape.org/) -->

<svg
   xmlns:dc="http://purl.org/dc/elements/1.1/"
   xmlns:cc="http://creativecommons.org/ns#"
   xmlns:rdf="http://www.w3.org/1999/02/22-rdf-syntax-ns#"
   xmlns:svg="http://www.w3.org/2000/svg"
   xmlns="http://www.w3.org/2000/svg"
   xmlns:inkscape="http://www.inkscape.org/namespaces/inkscape"
   version="1.1"
   width="686.25"
   height="807.5"
   id="svg2"
   xml:space="preserve"><metadata
     id="metadata8"><rdf:RDF><cc:Work
         rdf:about=""><dc:format>image/svg+xml</dc:format><dc:type
           rdf:resource="http://purl.org/dc/dcmitype/StillImage" /></cc:Work></rdf:RDF></metadata><defs
     id="defs6"><clipPath
       id="clipPath16"><path
         d="M 0,0 612,0 612,792 0,792 0,0 z"
         inkscape:connector-curvature="0"
         id="path18" /></clipPath><clipPath
       id="clipPath20"><path
         d="M 0,0 612,0 612,792 0,792 0,0 z"
         inkscape:connector-curvature="0"
         id="path22" /></clipPath></defs><g
     transform="matrix(1.25,0,0,-1.25,0,807.5)"
     id="g10"><g
       transform="translate(-31,-104)"
       id="g12"><g
         id="g14" /><g
         id="g24"><g
           clip-path="url(#clipPath16)"
           id="g26"><g
             id="g28"><g
               clip-path="url(#clipPath20)"
               id="g30"><path
                 d="M 0,792 612,792 612,0 0,0 0,792 z"
                 inkscape:connector-curvature="0"
                 id="path32"
                 style="fill:#ffffff;fill-opacity:1;fill-rule:evenodd;stroke:none" /><path
                 d="m 528.3,707.6 -50.8,0 0,41.7 101.6,0 0,-41.7 -50.8,0 z"
                 inkscape:connector-curvature="0"
                 id="path34"
                 style="fill:#cfe7f5;fill-opacity:1;fill-rule:evenodd;stroke:none" /><g
                 id="g36"><path
                   d="m 528.3,707.6 -50.8,0 0,41.7 101.6,0 0,-41.7 -50.8,0 z"
                   inkscape:connector-curvature="0"
                   id="path38"
                   style="fill:none;stroke:#808080;stroke-width:1.25;stroke-linecap:butt;stroke-linejoin:round;stroke-miterlimit:10;stroke-opacity:1;stroke-dasharray:none" /></g><g
                 id="g40"><text
                   transform="matrix(1,0,0,-1,485.1,724.8)"
                   id="text42"><tspan
                     x="0 7.1999998 14.4 21.6 28.799999 36 43.200001 50.400002 57.599998 64.800003 72 79.199997"
                     y="0"
                     id="tspan44"
                     style="font-size:12px;font-variant:normal;font-weight:normal;writing-mode:lr-tb;fill:#000000;fill-opacity:1;fill-rule:nonzero;stroke:none;font-family:FreeMono;-inkscape-font-specification:FreeMono">Transputer 4</tspan></text>
</g><path
                 d="m 528.3,612.5 -50.8,0 0,41.6 101.6,0 0,-41.6 -50.8,0 z"
                 inkscape:connector-curvature="0"
                 id="path46"
                 style="fill:#cfe7f5;fill-opacity:1;fill-rule:evenodd;stroke:none" /><g
                 id="g48"><path
                   d="m 528.3,612.5 -50.8,0 0,41.6 101.6,0 0,-41.6 -50.8,0 z"
                   inkscape:connector-curvature="0"
                   id="path50"
                   style="fill:none;stroke:#808080;stroke-width:1.25;stroke-linecap:butt;stroke-linejoin:round;stroke-miterlimit:10;stroke-opacity:1;stroke-dasharray:none" /></g><g
                 id="g52"><text
                   transform="matrix(1,0,0,-1,485.1,629.7)"
                   id="text54"><tspan
                     x="0 7.1999998 14.4 21.6 28.799999 36 43.200001 50.400002 57.599998 64.800003 72 79.199997"
                     y="0"
                     id="tspan56"
                     style="font-size:12px;font-variant:normal;font-weight:normal;writing-mode:lr-tb;fill:#000000;fill-opacity:1;fill-rule:nonzero;stroke:none;font-family:FreeMono;-inkscape-font-specification:FreeMono">Transputer 6</tspan></text>
</g><path
                 d="m 528.3,660 -50.8,0 0,41.7 101.6,0 0,-41.7 -50.8,0 z"
                 inkscape:connector-curvature="0"
                 id="path58"
                 style="fill:#cfe7f5;fill-opacity:1;fill-rule:evenodd;stroke:none" /><g
                 id="g60"><path
                   d="m 528.3,660 -50.8,0 0,41.7 101.6,0 0,-41.7 -50.8,0 z"
                   inkscape:connector-curvature="0"
                   id="path62"
                   style="fill:none;stroke:#808080;stroke-width:1.25;stroke-linecap:butt;stroke-linejoin:round;stroke-miterlimit:10;stroke-opacity:1;stroke-dasharray:none" /></g><g
                 id="g64"><text
                   transform="matrix(1,0,0,-1,485.1,677.3)"
                   id="text66"><tspan
                     x="0 7.1999998 14.4 21.6 28.799999 36 43.200001 50.400002 57.599998 64.800003 72 79.199997"
                     y="0"
                     id="tspan68"
                     style="font-size:12px;font-variant:normal;font-weight:normal;writing-mode:lr-tb;fill:#000000;fill-opacity:1;fill-rule:nonzero;stroke:none;font-family:FreeMono;-inkscape-font-specification:FreeMono">Transputer 5</tspan></text>
</g><path
                 d="m 367.2,660.1 -50.9,0 0,41.6 101.7,0 0,-41.6 -50.8,0 z"
                 inkscape:connector-curvature="0"
                 id="path70"
                 style="fill:#cfe7f5;fill-opacity:1;fill-rule:evenodd;stroke:none" /><g
                 id="g72"><path
                   d="m 367.2,660.1 -50.9,0 0,41.6 101.7,0 0,-41.6 -50.8,0 z"
                   inkscape:connector-curvature="0"
                   id="path74"
                   style="fill:none;stroke:#808080;stroke-width:1.25;stroke-linecap:butt;stroke-linejoin:round;stroke-miterlimit:10;stroke-opacity:1;stroke-dasharray:none" /></g><g
                 id="g76"><text
                   transform="matrix(1,0,0,-1,324,677.3)"
                   id="text78"><tspan
                     x="0 7.1999998 14.4 21.6 28.799999 36 43.200001 50.400002 57.599998 64.800003 72 79.199997"
                     y="0"
                     id="tspan80"
                     style="font-size:12px;font-variant:normal;font-weight:normal;writing-mode:lr-tb;fill:#000000;fill-opacity:1;fill-rule:nonzero;stroke:none;font-family:FreeMono;-inkscape-font-specification:FreeMono">Transputer 1</tspan></text>
</g><g
                 id="g82"><path
                   d="m 477.5,728.4 -110.3,0 0,-26.7"
                   inkscape:connector-curvature="0"
                   id="path84"
                   style="fill:none;stroke:#808080;stroke-width:1.25;stroke-linecap:butt;stroke-linejoin:round;stroke-miterlimit:10;stroke-opacity:1;stroke-dasharray:none" /></g><g
                 id="g86"><path
                   d="m 477.5,680.9 -29.7,0 0,0 -29.8,0"
                   inkscape:connector-curvature="0"
                   id="path88"
                   style="fill:none;stroke:#808080;stroke-width:1.25;stroke-linecap:butt;stroke-linejoin:round;stroke-miterlimit:10;stroke-opacity:1;stroke-dasharray:none" /></g><g
                 id="g90"><path
                   d="m 477.5,633.3 -110.3,0 0,26.8"
                   inkscape:connector-curvature="0"
                   id="path92"
                   style="fill:none;stroke:#808080;stroke-width:1.25;stroke-linecap:butt;stroke-linejoin:round;stroke-miterlimit:10;stroke-opacity:1;stroke-dasharray:none" /></g><path
                 d="m 528.3,542 -50.8,0 0,41.7 101.6,0 0,-41.7 -50.8,0 z"
                 inkscape:connector-curvature="0"
                 id="path94"
                 style="fill:#cfe7f5;fill-opacity:1;fill-rule:evenodd;stroke:none" /><g
                 id="g96"><path
                   d="m 528.3,542 -50.8,0 0,41.7 101.6,0 0,-41.7 -50.8,0 z"
                   inkscape:connector-curvature="0"
                   id="path98"
                   style="fill:none;stroke:#808080;stroke-width:1.25;stroke-linecap:butt;stroke-linejoin:round;stroke-miterlimit:10;stroke-opacity:1;stroke-dasharray:none" /></g><g
                 id="g100"><text
                   transform="matrix(1,0,0,-1,485.1,559.2)"
                   id="text102"><tspan
                     x="0 7.1999998 14.4 21.6 28.799999 36 43.200001 50.400002 57.599998 64.800003 72 79.199997"
                     y="0"
                     id="tspan104"
                     style="font-size:12px;font-variant:normal;font-weight:normal;writing-mode:lr-tb;fill:#000000;fill-opacity:1;fill-rule:nonzero;stroke:none;font-family:FreeMono;-inkscape-font-specification:FreeMono">Transputer 7</tspan></text>
</g><path
                 d="m 528.3,446.9 -50.8,0 0,41.6 101.6,0 0,-41.6 -50.8,0 z"
                 inkscape:connector-curvature="0"
                 id="path106"
                 style="fill:#cfe7f5;fill-opacity:1;fill-rule:evenodd;stroke:none" /><g
                 id="g108"><path
                   d="m 528.3,446.9 -50.8,0 0,41.6 101.6,0 0,-41.6 -50.8,0 z"
                   inkscape:connector-curvature="0"
                   id="path110"
                   style="fill:none;stroke:#808080;stroke-width:1.25;stroke-linecap:butt;stroke-linejoin:round;stroke-miterlimit:10;stroke-opacity:1;stroke-dasharray:none" /></g><g
                 id="g112"><text
                   transform="matrix(1,0,0,-1,485.1,464.1)"
                   id="text114"><tspan
                     x="0 7.1999998 14.4 21.6 28.799999 36 43.200001 50.400002 57.599998 64.800003 72 79.199997"
                     y="0"
                     id="tspan116"
                     style="font-size:12px;font-variant:normal;font-weight:normal;writing-mode:lr-tb;fill:#000000;fill-opacity:1;fill-rule:nonzero;stroke:none;font-family:FreeMono;-inkscape-font-specification:FreeMono">Transputer 9</tspan></text>
</g><path
                 d="m 528.3,494.4 -50.8,0 0,41.7 101.6,0 0,-41.7 -50.8,0 z"
                 inkscape:connector-curvature="0"
                 id="path118"
                 style="fill:#cfe7f5;fill-opacity:1;fill-rule:evenodd;stroke:none" /><g
                 id="g120"><path
                   d="m 528.3,494.4 -50.8,0 0,41.7 101.6,0 0,-41.7 -50.8,0 z"
                   inkscape:connector-curvature="0"
                   id="path122"
                   style="fill:none;stroke:#808080;stroke-width:1.25;stroke-linecap:butt;stroke-linejoin:round;stroke-miterlimit:10;stroke-opacity:1;stroke-dasharray:none" /></g><g
                 id="g124"><text
                   transform="matrix(1,0,0,-1,485.1,511.7)"
                   id="text126"><tspan
                     x="0 7.1999998 14.4 21.6 28.799999 36 43.200001 50.400002 57.599998 64.800003 72 79.199997"
                     y="0"
                     id="tspan128"
                     style="font-size:12px;font-variant:normal;font-weight:normal;writing-mode:lr-tb;fill:#000000;fill-opacity:1;fill-rule:nonzero;stroke:none;font-family:FreeMono;-inkscape-font-specification:FreeMono">Transputer 8</tspan></text>
</g><path
                 d="m 367.2,494.5 -50.9,0 0,41.6 101.7,0 0,-41.6 -50.8,0 z"
                 inkscape:connector-curvature="0"
                 id="path130"
                 style="fill:#cfe7f5;fill-opacity:1;fill-rule:evenodd;stroke:none" /><g
                 id="g132"><path
                   d="m 367.2,494.5 -50.9,0 0,41.6 101.7,0 0,-41.6 -50.8,0 z"
                   inkscape:connector-curvature="0"
                   id="path134"
                   style="fill:none;stroke:#808080;stroke-width:1.25;stroke-linecap:butt;stroke-linejoin:round;stroke-miterlimit:10;stroke-opacity:1;stroke-dasharray:none" /></g><g
                 id="g136"><text
                   transform="matrix(1,0,0,-1,324,511.7)"
                   id="text138"><tspan
                     x="0 7.1999998 14.4 21.6 28.799999 36 43.200001 50.400002 57.599998 64.800003 72 79.199997"
                     y="0"
                     id="tspan140"
                     style="font-size:12px;font-variant:normal;font-weight:normal;writing-mode:lr-tb;fill:#000000;fill-opacity:1;fill-rule:nonzero;stroke:none;font-family:FreeMono;-inkscape-font-specification:FreeMono">Transputer 2</tspan></text>
</g><g
                 id="g142"><path
                   d="m 477.5,562.8 -110.3,0 0,-26.7"
                   inkscape:connector-curvature="0"
                   id="path144"
                   style="fill:none;stroke:#808080;stroke-width:1.25;stroke-linecap:butt;stroke-linejoin:round;stroke-miterlimit:10;stroke-opacity:1;stroke-dasharray:none" /></g><g
                 id="g146"><path
                   d="m 477.5,515.3 -29.7,0 0,0 -29.8,0"
                   inkscape:connector-curvature="0"
                   id="path148"
                   style="fill:none;stroke:#808080;stroke-width:1.25;stroke-linecap:butt;stroke-linejoin:round;stroke-miterlimit:10;stroke-opacity:1;stroke-dasharray:none" /></g><g
                 id="g150"><path
                   d="m 477.5,467.7 -110.3,0 0,26.8"
                   inkscape:connector-curvature="0"
                   id="path152"
                   style="fill:none;stroke:#808080;stroke-width:1.25;stroke-linecap:butt;stroke-linejoin:round;stroke-miterlimit:10;stroke-opacity:1;stroke-dasharray:none" /></g><path
                 d="m 528.3,376.4 -50.8,0 0,41.7 101.6,0 0,-41.7 -50.8,0 z"
                 inkscape:connector-curvature="0"
                 id="path154"
                 style="fill:#cfe7f5;fill-opacity:1;fill-rule:evenodd;stroke:none" /><g
                 id="g156"><path
                   d="m 528.3,376.4 -50.8,0 0,41.7 101.6,0 0,-41.7 -50.8,0 z"
                   inkscape:connector-curvature="0"
                   id="path158"
                   style="fill:none;stroke:#808080;stroke-width:1.25;stroke-linecap:butt;stroke-linejoin:round;stroke-miterlimit:10;stroke-opacity:1;stroke-dasharray:none" /></g><g
                 id="g160"><text
                   transform="matrix(1,0,0,-1,481.5,393.6)"
                   id="text162"><tspan
                     x="0 7.1999998 14.4 21.6 28.799999 36 43.200001 50.400002 57.599998 64.800003 72 79.199997 86.400002"
                     y="0"
                     id="tspan164"
                     style="font-size:12px;font-variant:normal;font-weight:normal;writing-mode:lr-tb;fill:#000000;fill-opacity:1;fill-rule:nonzero;stroke:none;font-family:FreeMono;-inkscape-font-specification:FreeMono">Transputer 10</tspan></text>
</g><path
                 d="m 528.3,243.2 -50.8,0 0,41.7 101.6,0 0,-41.7 -50.8,0 z"
                 inkscape:connector-curvature="0"
                 id="path166"
                 style="fill:#cfe7f5;fill-opacity:1;fill-rule:evenodd;stroke:none" /><g
                 id="g168"><path
                   d="m 528.3,243.2 -50.8,0 0,41.7 101.6,0 0,-41.7 -50.8,0 z"
                   inkscape:connector-curvature="0"
                   id="path170"
                   style="fill:none;stroke:#808080;stroke-width:1.25;stroke-linecap:butt;stroke-linejoin:round;stroke-miterlimit:10;stroke-opacity:1;stroke-dasharray:none" /></g><g
                 id="g172"><text
                   transform="matrix(1,0,0,-1,481.5,260.4)"
                   id="text174"><tspan
                     x="0 7.1999998 14.4 21.6 28.799999 36 43.200001 50.400002 57.599998 64.800003 72 79.199997 86.400002"
                     y="0"
                     id="tspan176"
                     style="font-size:12px;font-variant:normal;font-weight:normal;writing-mode:lr-tb;fill:#000000;fill-opacity:1;fill-rule:nonzero;stroke:none;font-family:FreeMono;-inkscape-font-specification:FreeMono">Transputer 12</tspan></text>
</g><path
                 d="m 528.3,328.8 -50.8,0 0,41.7 101.6,0 0,-41.7 -50.8,0 z"
                 inkscape:connector-curvature="0"
                 id="path178"
                 style="fill:#cfe7f5;fill-opacity:1;fill-rule:evenodd;stroke:none" /><g
                 id="g180"><path
                   d="m 528.3,328.8 -50.8,0 0,41.7 101.6,0 0,-41.7 -50.8,0 z"
                   inkscape:connector-curvature="0"
                   id="path182"
                   style="fill:none;stroke:#808080;stroke-width:1.25;stroke-linecap:butt;stroke-linejoin:round;stroke-miterlimit:10;stroke-opacity:1;stroke-dasharray:none" /></g><g
                 id="g184"><text
                   transform="matrix(1,0,0,-1,481.5,346.1)"
                   id="text186"><tspan
                     x="0 7.1999998 14.4 21.6 28.799999 36 43.200001 50.400002 57.599998 64.800003 72 79.199997 86.400002"
                     y="0"
                     id="tspan188"
                     style="font-size:12px;font-variant:normal;font-weight:normal;writing-mode:lr-tb;fill:#000000;fill-opacity:1;fill-rule:nonzero;stroke:none;font-family:FreeMono;-inkscape-font-specification:FreeMono">Transputer 11</tspan></text>
</g><path
                 d="m 367.2,328.9 -50.9,0 0,41.6 101.7,0 0,-41.6 -50.8,0 z"
                 inkscape:connector-curvature="0"
                 id="path190"
                 style="fill:#cfe7f5;fill-opacity:1;fill-rule:evenodd;stroke:none" /><g
                 id="g192"><path
                   d="m 367.2,328.9 -50.9,0 0,41.6 101.7,0 0,-41.6 -50.8,0 z"
                   inkscape:connector-curvature="0"
                   id="path194"
                   style="fill:none;stroke:#808080;stroke-width:1.25;stroke-linecap:butt;stroke-linejoin:round;stroke-miterlimit:10;stroke-opacity:1;stroke-dasharray:none" /></g><g
                 id="g196"><text
                   transform="matrix(1,0,0,-1,324,346.1)"
                   id="text198"><tspan
                     x="0 7.1999998 14.4 21.6 28.799999 36 43.200001 50.400002 57.599998 64.800003 72 79.199997"
                     y="0"
                     id="tspan200"
                     style="font-size:12px;font-variant:normal;font-weight:normal;writing-mode:lr-tb;fill:#000000;fill-opacity:1;fill-rule:nonzero;stroke:none;font-family:FreeMono;-inkscape-font-specification:FreeMono">Transputer 3</tspan></text>
</g><g
                 id="g202"><path
                   d="m 477.5,397.2 -110.3,0 0,-26.7"
                   inkscape:connector-curvature="0"
                   id="path204"
                   style="fill:none;stroke:#808080;stroke-width:1.25;stroke-linecap:butt;stroke-linejoin:round;stroke-miterlimit:10;stroke-opacity:1;stroke-dasharray:none" /></g><g
                 id="g206"><path
                   d="m 477.5,349.7 -29.7,0 0,0 -29.8,0"
                   inkscape:connector-curvature="0"
                   id="path208"
                   style="fill:none;stroke:#808080;stroke-width:1.25;stroke-linecap:butt;stroke-linejoin:round;stroke-miterlimit:10;stroke-opacity:1;stroke-dasharray:none" /></g><g
                 id="g210"><path
                   d="m 477.5,264 -110.3,0 0,64.9"
                   inkscape:connector-curvature="0"
                   id="path212"
                   style="fill:none;stroke:#808080;stroke-width:1.25;stroke-linecap:butt;stroke-linejoin:round;stroke-miterlimit:10;stroke-opacity:1;stroke-dasharray:none" /></g><path
                 d="m 210.6,494.4 -50.8,0 0,41.6 101.6,0 0,-41.6 -50.8,0 z"
                 inkscape:connector-curvature="0"
                 id="path214"
                 style="fill:#cfe7f5;fill-opacity:1;fill-rule:evenodd;stroke:none" /><g
                 id="g216"><path
                   d="m 210.6,494.4 -50.8,0 0,41.6 101.6,0 0,-41.6 -50.8,0 z"
                   inkscape:connector-curvature="0"
                   id="path218"
                   style="fill:none;stroke:#808080;stroke-width:1.25;stroke-linecap:butt;stroke-linejoin:round;stroke-miterlimit:10;stroke-opacity:1;stroke-dasharray:none" /></g><g
                 id="g220"><text
                   transform="matrix(1,0,0,-1,167.4,511.6)"
                   id="text222"><tspan
                     x="0 7.1999998 14.4 21.6 28.799999 36 43.200001 50.400002 57.599998 64.800003 72 79.199997"
                     y="0"
                     id="tspan224"
                     style="font-size:12px;font-variant:normal;font-weight:normal;writing-mode:lr-tb;fill:#000000;fill-opacity:1;fill-rule:nonzero;stroke:none;font-family:FreeMono;-inkscape-font-specification:FreeMono">Transputer 0</tspan></text>
</g><path
                 d="m 71.5,446.9 -39.6,0 0,136.8 79.2,0 0,-136.8 -39.6,0 z"
                 inkscape:connector-curvature="0"
                 id="path226"
                 style="fill:#cfe7f5;fill-opacity:1;fill-rule:evenodd;stroke:none" /><g
                 id="g228"><path
                   d="m 71.5,446.9 -39.6,0 0,136.8 79.2,0 0,-136.8 -39.6,0 z"
                   inkscape:connector-curvature="0"
                   id="path230"
                   style="fill:none;stroke:#808080;stroke-width:1.25;stroke-linecap:butt;stroke-linejoin:round;stroke-miterlimit:10;stroke-opacity:1;stroke-dasharray:none" /></g><g
                 id="g232"><text
                   transform="matrix(1,0,0,-1,39.1,511.7)"
                   id="text234"><tspan
                     x="0 7.1999998 14.4 21.6 28.799999 36 43.200001 50.400002 57.599998"
                     y="0"
                     id="tspan236"
                     style="font-size:12px;font-variant:normal;font-weight:normal;writing-mode:lr-tb;fill:#000000;fill-opacity:1;fill-rule:nonzero;stroke:none;font-family:FreeMono;-inkscape-font-specification:FreeMono">input.bin</tspan></text>
</g><g
                 id="g238"><path
                   d="m 210.6,536 0,144.9 105.7,0"
                   inkscape:connector-curvature="0"
                   id="path240"
                   style="fill:none;stroke:#808080;stroke-width:1.25;stroke-linecap:butt;stroke-linejoin:round;stroke-miterlimit:10;stroke-opacity:1;stroke-dasharray:none" /></g><g
                 id="g242"><path
                   d="m 261.4,515.2 27.5,0 0,0.1 27.4,0"
                   inkscape:connector-curvature="0"
                   id="path244"
                   style="fill:none;stroke:#808080;stroke-width:1.25;stroke-linecap:butt;stroke-linejoin:round;stroke-miterlimit:10;stroke-opacity:1;stroke-dasharray:none" /></g><g
                 id="g246"><path
                   d="m 210.6,494.4 0,-144.7 105.7,0"
                   inkscape:connector-curvature="0"
                   id="path248"
                   style="fill:none;stroke:#808080;stroke-width:1.25;stroke-linecap:butt;stroke-linejoin:round;stroke-miterlimit:10;stroke-opacity:1;stroke-dasharray:none" /></g><g
                 id="g250"><path
                   d="m 159.8,515.2 -24.3,0 0,0.1 -24.4,0"
                   inkscape:connector-curvature="0"
                   id="path252"
                   style="fill:none;stroke:#808080;stroke-width:1.25;stroke-linecap:butt;stroke-linejoin:round;stroke-miterlimit:10;stroke-opacity:1;stroke-dasharray:none" /></g><g
                 id="g254"><text
                   transform="matrix(1,0,0,-1,306.7,684.2)"
                   id="text256"><tspan
                     x="0"
                     y="0"
                     id="tspan258"
                     style="font-size:12px;font-variant:normal;font-weight:normal;writing-mode:lr-tb;fill:#000000;fill-opacity:1;fill-rule:nonzero;stroke:none;font-family:FreeMono;-inkscape-font-specification:FreeMono">0</tspan></text>
</g><g
                 id="g260"><text
                   transform="matrix(1,0,0,-1,306.7,516.9)"
                   id="text262"><tspan
                     x="0"
                     y="0"
                     id="tspan264"
                     style="font-size:12px;font-variant:normal;font-weight:normal;writing-mode:lr-tb;fill:#000000;fill-opacity:1;fill-rule:nonzero;stroke:none;font-family:FreeMono;-inkscape-font-specification:FreeMono">0</tspan></text>
</g><g
                 id="g266"><text
                   transform="matrix(1,0,0,-1,306.7,352.5)"
                   id="text268"><tspan
                     x="0"
                     y="0"
                     id="tspan270"
                     style="font-size:12px;font-variant:normal;font-weight:normal;writing-mode:lr-tb;fill:#000000;fill-opacity:1;fill-rule:nonzero;stroke:none;font-family:FreeMono;-inkscape-font-specification:FreeMono">0</tspan></text>
</g><g
                 id="g272"><text
                   transform="matrix(1,0,0,-1,468.3,729.5)"
                   id="text274"><tspan
                     x="0"
                     y="0"
                     id="tspan276"
                     style="font-size:12px;font-variant:normal;font-weight:normal;writing-mode:lr-tb;fill:#000000;fill-opacity:1;fill-rule:nonzero;stroke:none;font-family:FreeMono;-inkscape-font-specification:FreeMono">0</tspan></text>
</g><g
                 id="g278"><text
                   transform="matrix(1,0,0,-1,468.3,681.3)"
                   id="text280"><tspan
                     x="0"
                     y="0"
                     id="tspan282"
                     style="font-size:12px;font-variant:normal;font-weight:normal;writing-mode:lr-tb;fill:#000000;fill-opacity:1;fill-rule:nonzero;stroke:none;font-family:FreeMono;-inkscape-font-specification:FreeMono">0</tspan></text>
</g><g
                 id="g284"><text
                   transform="matrix(1,0,0,-1,468.3,635.9)"
                   id="text286"><tspan
                     x="0"
                     y="0"
                     id="tspan288"
                     style="font-size:12px;font-variant:normal;font-weight:normal;writing-mode:lr-tb;fill:#000000;fill-opacity:1;fill-rule:nonzero;stroke:none;font-family:FreeMono;-inkscape-font-specification:FreeMono">0</tspan></text>
</g><g
                 id="g290"><text
                   transform="matrix(1,0,0,-1,468.3,565)"
                   id="text292"><tspan
                     x="0"
                     y="0"
                     id="tspan294"
                     style="font-size:12px;font-variant:normal;font-weight:normal;writing-mode:lr-tb;fill:#000000;fill-opacity:1;fill-rule:nonzero;stroke:none;font-family:FreeMono;-inkscape-font-specification:FreeMono">0</tspan></text>
</g><g
                 id="g296"><text
                   transform="matrix(1,0,0,-1,468.3,516.8)"
                   id="text298"><tspan
                     x="0"
                     y="0"
                     id="tspan300"
                     style="font-size:12px;font-variant:normal;font-weight:normal;writing-mode:lr-tb;fill:#000000;fill-opacity:1;fill-rule:nonzero;stroke:none;font-family:FreeMono;-inkscape-font-specification:FreeMono">0</tspan></text>
</g><g
                 id="g302"><text
                   transform="matrix(1,0,0,-1,468.3,468.6)"
                   id="text304"><tspan
                     x="0"
                     y="0"
                     id="tspan306"
                     style="font-size:12px;font-variant:normal;font-weight:normal;writing-mode:lr-tb;fill:#000000;fill-opacity:1;fill-rule:nonzero;stroke:none;font-family:FreeMono;-inkscape-font-specification:FreeMono">0</tspan></text>
</g><g
                 id="g308"><text
                   transform="matrix(1,0,0,-1,468.3,400.5)"
                   id="text310"><tspan
                     x="0"
                     y="0"
                     id="tspan312"
                     style="font-size:12px;font-variant:normal;font-weight:normal;writing-mode:lr-tb;fill:#000000;fill-opacity:1;fill-rule:nonzero;stroke:none;font-family:FreeMono;-inkscape-font-specification:FreeMono">0</tspan></text>
</g><g
                 id="g314"><text
                   transform="matrix(1,0,0,-1,468.3,352.3)"
                   id="text316"><tspan
                     x="0"
                     y="0"
                     id="tspan318"
                     style="font-size:12px;font-variant:normal;font-weight:normal;writing-mode:lr-tb;fill:#000000;fill-opacity:1;fill-rule:nonzero;stroke:none;font-family:FreeMono;-inkscape-font-specification:FreeMono">0</tspan></text>
</g><g
                 id="g320"><text
                   transform="matrix(1,0,0,-1,468.3,267.2)"
                   id="text322"><tspan
                     x="0"
                     y="0"
                     id="tspan324"
                     style="font-size:12px;font-variant:normal;font-weight:normal;writing-mode:lr-tb;fill:#000000;fill-opacity:1;fill-rule:nonzero;stroke:none;font-family:FreeMono;-inkscape-font-specification:FreeMono">0</tspan></text>
</g><g
                 id="g326"><text
                   transform="matrix(1,0,0,-1,150.8,516.6)"
                   id="text328"><tspan
                     x="0"
                     y="0"
                     id="tspan330"
                     style="font-size:12px;font-variant:normal;font-weight:normal;writing-mode:lr-tb;fill:#000000;fill-opacity:1;fill-rule:nonzero;stroke:none;font-family:FreeMono;-inkscape-font-specification:FreeMono">0</tspan></text>
</g><g
                 id="g332"><text
                   transform="matrix(1,0,0,-1,360.6,704)"
                   id="text334"><tspan
                     x="0"
                     y="0"
                     id="tspan336"
                     style="font-size:12px;font-variant:normal;font-weight:normal;writing-mode:lr-tb;fill:#000000;fill-opacity:1;fill-rule:nonzero;stroke:none;font-family:FreeMono;-inkscape-font-specification:FreeMono">1</tspan></text>
</g><g
                 id="g338"><text
                   transform="matrix(1,0,0,-1,360.6,536.7)"
                   id="text340"><tspan
                     x="0"
                     y="0"
                     id="tspan342"
                     style="font-size:12px;font-variant:normal;font-weight:normal;writing-mode:lr-tb;fill:#000000;fill-opacity:1;fill-rule:nonzero;stroke:none;font-family:FreeMono;-inkscape-font-specification:FreeMono">1</tspan></text>
</g><g
                 id="g344"><text
                   transform="matrix(1,0,0,-1,360.6,372.3)"
                   id="text346"><tspan
                     x="0"
                     y="0"
                     id="tspan348"
                     style="font-size:12px;font-variant:normal;font-weight:normal;writing-mode:lr-tb;fill:#000000;fill-opacity:1;fill-rule:nonzero;stroke:none;font-family:FreeMono;-inkscape-font-specification:FreeMono">1</tspan></text>
</g><g
                 id="g350"><text
                   transform="matrix(1,0,0,-1,201.9,537.6)"
                   id="text352"><tspan
                     x="0"
                     y="0"
                     id="tspan354"
                     style="font-size:12px;font-variant:normal;font-weight:normal;writing-mode:lr-tb;fill:#000000;fill-opacity:1;fill-rule:nonzero;stroke:none;font-family:FreeMono;-inkscape-font-specification:FreeMono">1</tspan></text>
</g><g
                 id="g356"><path
                   d="m 528.3,284.9 0,43.9"
                   inkscape:connector-curvature="0"
                   id="path358"
                   style="fill:none;stroke:#808080;stroke-width:1.25;stroke-linecap:butt;stroke-linejoin:round;stroke-miterlimit:10;stroke-opacity:1;stroke-dasharray:none" /></g><g
                 id="g360"><text
                   transform="matrix(1,0,0,-1,519.3,318.4)"
                   id="text362"><tspan
                     x="0"
                     y="0"
                     id="tspan364"
                     style="font-size:12px;font-variant:normal;font-weight:normal;writing-mode:lr-tb;fill:#000000;fill-opacity:1;fill-rule:nonzero;stroke:none;font-family:FreeMono;-inkscape-font-specification:FreeMono">1</tspan></text>
</g><g
                 id="g366"><text
                   transform="matrix(1,0,0,-1,519.3,287.2)"
                   id="text368"><tspan
                     x="0"
                     y="0"
                     id="tspan370"
                     style="font-size:12px;font-variant:normal;font-weight:normal;writing-mode:lr-tb;fill:#000000;fill-opacity:1;fill-rule:nonzero;stroke:none;font-family:FreeMono;-inkscape-font-specification:FreeMono">1</tspan></text>
</g><g
                 id="g372"><text
                   transform="matrix(1,0,0,-1,360.6,318.4)"
                   id="text374"><tspan
                     x="0"
                     y="0"
                     id="tspan376"
                     style="font-size:12px;font-variant:normal;font-weight:normal;writing-mode:lr-tb;fill:#000000;fill-opacity:1;fill-rule:nonzero;stroke:none;font-family:FreeMono;-inkscape-font-specification:FreeMono">3</tspan></text>
</g><g
                 id="g378"><text
                   transform="matrix(1,0,0,-1,360.6,482.8)"
                   id="text380"><tspan
                     x="0"
                     y="0"
                     id="tspan382"
                     style="font-size:12px;font-variant:normal;font-weight:normal;writing-mode:lr-tb;fill:#000000;fill-opacity:1;fill-rule:nonzero;stroke:none;font-family:FreeMono;-inkscape-font-specification:FreeMono">3</tspan></text>
</g><g
                 id="g384"><text
                   transform="matrix(1,0,0,-1,360.6,650)"
                   id="text386"><tspan
                     x="0"
                     y="0"
                     id="tspan388"
                     style="font-size:12px;font-variant:normal;font-weight:normal;writing-mode:lr-tb;fill:#000000;fill-opacity:1;fill-rule:nonzero;stroke:none;font-family:FreeMono;-inkscape-font-specification:FreeMono">3</tspan></text>
</g><g
                 id="g390"><text
                   transform="matrix(1,0,0,-1,201.9,482.7)"
                   id="text392"><tspan
                     x="0"
                     y="0"
                     id="tspan394"
                     style="font-size:12px;font-variant:normal;font-weight:normal;writing-mode:lr-tb;fill:#000000;fill-opacity:1;fill-rule:nonzero;stroke:none;font-family:FreeMono;-inkscape-font-specification:FreeMono">3</tspan></text>
</g><g
                 id="g396"><text
                   transform="matrix(1,0,0,-1,264.2,516.7)"
                   id="text398"><tspan
                     x="0"
                     y="0"
                     id="tspan400"
                     style="font-size:12px;font-variant:normal;font-weight:normal;writing-mode:lr-tb;fill:#000000;fill-opacity:1;fill-rule:nonzero;stroke:none;font-family:FreeMono;-inkscape-font-specification:FreeMono">2</tspan></text>
</g><g
                 id="g402"><text
                   transform="matrix(1,0,0,-1,420.1,516.7)"
                   id="text404"><tspan
                     x="0"
                     y="0"
                     id="tspan406"
                     style="font-size:12px;font-variant:normal;font-weight:normal;writing-mode:lr-tb;fill:#000000;fill-opacity:1;fill-rule:nonzero;stroke:none;font-family:FreeMono;-inkscape-font-specification:FreeMono">2</tspan></text>
</g><g
                 id="g408"><text
                   transform="matrix(1,0,0,-1,420.1,683.9)"
                   id="text410"><tspan
                     x="0"
                     y="0"
                     id="tspan412"
                     style="font-size:12px;font-variant:normal;font-weight:normal;writing-mode:lr-tb;fill:#000000;fill-opacity:1;fill-rule:nonzero;stroke:none;font-family:FreeMono;-inkscape-font-specification:FreeMono">2</tspan></text>
</g><g
                 id="g414"><text
                   transform="matrix(1,0,0,-1,420.1,352.2)"
                   id="text416"><tspan
                     x="0"
                     y="0"
                     id="tspan418"
                     style="font-size:12px;font-variant:normal;font-weight:normal;writing-mode:lr-tb;fill:#000000;fill-opacity:1;fill-rule:nonzero;stroke:none;font-family:FreeMono;-inkscape-font-specification:FreeMono">2</tspan></text>
</g><g
                 id="g420"><text
                   transform="matrix(1,0,0,-1,116.8,507)"
                   id="text422"><tspan
                     x="0 6 12 18 24 30"
                     y="0"
                     id="tspan424"
                     style="font-size:10px;font-variant:normal;font-weight:normal;writing-mode:lr-tb;fill:#000000;fill-opacity:1;fill-rule:nonzero;stroke:none;font-family:FreeMono;-inkscape-font-specification:FreeMono">in/out</tspan></text>
</g><g
                 id="g426"><text
                   transform="matrix(1,0,0,-1,39,183.7)"
                   id="text428"><tspan
                     x="0 6.5999999 13.2 19.799999 26.4 33 39.599998"
                     y="0"
                     id="tspan430"
                     style="font-size:11px;font-variant:normal;font-weight:normal;writing-mode:lr-tb;fill:#000000;fill-opacity:1;fill-rule:nonzero;stroke:none;font-family:FreeMono;-inkscape-font-specification:FreeMono">SHA256:</tspan></text>
</g><g
                 transform="translate(39,183.7)"
                 id="g432"><path
                   d="m 0,-0.9 46.2,0"
                   inkscape:connector-curvature="0"
                   id="path434"
                   style="fill:none;stroke:#000000;stroke-width:0.60000002;stroke-linecap:butt;stroke-linejoin:miter;stroke-miterlimit:10;stroke-opacity:1;stroke-dasharray:none" /></g><g
                 id="g436" /><g
                 id="g438"><text
                   transform="matrix(1,0,0,-1,65.4,172.6)"
                   id="text440"><tspan
                     x="0 6.5999999 13.2 19.799999 26.4 33 39.599998 46.200001 52.799999 59.400002 66 72.599998 79.199997 85.800003 92.400002 99 105.6 112.2 118.8 125.4 132 138.60001 145.2 151.8 158.39999 165 171.60001 178.2 184.8 191.39999 198 204.60001 211.2 217.8 224.39999 231 237.60001 244.2 250.8 257.39999 264 270.60001 277.20001 283.79999 290.39999 297 303.60001 310.20001 316.79999 323.39999 330 336.60001 343.20001 349.79999 356.39999 363 369.60001 376.20001 382.79999 389.39999 396 402.60001 409.20001 415.79999 422.39999 429 435.60001 442.20001 448.79999 455.39999 462 468.60001 475.20001 481.79999 488.39999 495"
                     y="0"
                     id="tspan442"
                     style="font-size:11px;font-variant:normal;font-weight:normal;writing-mode:lr-tb;fill:#000000;fill-opacity:1;fill-rule:nonzero;stroke:none;font-family:FreeMono;-inkscape-font-specification:FreeMono">a5790b4427bc13e4f4e9f524c684809ce96cd2f724e29d94dc999ec25e166a81 - encrypted</tspan></text>
</g><g
                 id="g444" /><g
                 id="g446"><text
                   transform="matrix(1,0,0,-1,65.4,161.6)"
                   id="text448"><tspan
                     x="0 6.5999999 13.2 19.799999 26.4 33 39.599998 46.200001 52.799999 59.400002 66 72.599998 79.199997 85.800003 92.400002 99 105.6 112.2 118.8 125.4 132 138.60001 145.2 151.8 158.39999 165 171.60001 178.2 184.8 191.39999 198 204.60001 211.2 217.8 224.39999 231 237.60001 244.2 250.8 257.39999 264 270.60001 277.20001 283.79999 290.39999 297 303.60001 310.20001 316.79999 323.39999 330 336.60001 343.20001 349.79999 356.39999 363 369.60001 376.20001 382.79999 389.39999 396 402.60001 409.20001 415.79999 422.39999 429 435.60001 442.20001 448.79999 455.39999 462 468.60001 475.20001 481.79999 488.39999 495"
                     y="0"
                     id="tspan450"
                     style="font-size:11px;font-variant:normal;font-weight:normal;writing-mode:lr-tb;fill:#000000;fill-opacity:1;fill-rule:nonzero;stroke:none;font-family:FreeMono;-inkscape-font-specification:FreeMono">9128135129d2be652809f5a1d337211affad91ed5827474bf9bd7e285ecef321 – decrypted</tspan></text>
</g><g
                 id="g452"><text
                   transform="matrix(1,0,0,-1,39,139.5)"
                   id="text454"><tspan
                     x="0 6.5999999 13.2 19.799999 26.4 33 39.599998 46.200001 52.799999 59.400002 66 72.599998"
                     y="0"
                     id="tspan456"
                     style="font-size:11px;font-variant:normal;font-weight:normal;writing-mode:lr-tb;fill:#000000;fill-opacity:1;fill-rule:nonzero;stroke:none;font-family:FreeMono;-inkscape-font-specification:FreeMono">Test vector:</tspan></text>
</g><g
                 transform="translate(39,139.5)"
                 id="g458"><path
                   d="m 0,-0.9 79.2,0"
                   inkscape:connector-curvature="0"
                   id="path460"
                   style="fill:none;stroke:#000000;stroke-width:0.60000002;stroke-linecap:butt;stroke-linejoin:miter;stroke-miterlimit:10;stroke-opacity:1;stroke-dasharray:none" /></g><g
                 id="g462" /><g
                 id="g464"><text
                   transform="matrix(1,0,0,-1,65.4,128.5)"
                   id="text466"><tspan
                     x="0 6.5999999 13.2 19.799999 26.4 33 39.599998 46.200001 52.799999 59.400002 66 72.599998 79.199997 85.800003 92.400002 99 105.6 112.2"
                     y="0"
                     id="tspan468"
                     style="font-size:11px;font-variant:normal;font-weight:normal;writing-mode:lr-tb;fill:#000000;fill-opacity:1;fill-rule:nonzero;stroke:none;font-family:FreeMono;-inkscape-font-specification:FreeMono">key = “*SSTIC-2015</tspan></text>
</g><g
                 id="g470"><text
                   transform="matrix(1,0,0,-1,184.2,128.5)"
                   id="text472"><tspan
                     x="0 6.5999999"
                     y="0"
                     id="tspan474"
                     style="font-size:11px;font-variant:normal;font-weight:normal;writing-mode:lr-tb;fill:#000000;fill-opacity:1;fill-rule:nonzero;stroke:none;font-family:FreeMono;-inkscape-font-specification:FreeMono">*”</tspan></text>
</g><g
                 id="g476" /><g
                 id="g478"><text
                   transform="matrix(1,0,0,-1,65.4,117.5)"
                   id="text480"><tspan
                     x="0 6.5999999 13.2 19.799999 26.4 33 39.599998 46.200001 52.799999 59.400002 66 72.599998 79.199997 85.800003 92.400002 99 105.6 112.2 118.8 125.4 132 138.60001 145.2 151.8 158.39999 165 171.60001 178.2 184.8 191.39999 198 204.60001 211.2 217.8 224.39999 231 237.60001 244.2 250.8 257.39999 264 270.60001 277.20001 283.79999 290.39999 297 303.60001 310.20001 316.79999 323.39999 330 336.60001 343.20001 349.79999 356.39999 363 369.60001 376.20001 382.79999 389.39999 396 402.60001 409.20001 415.79999 422.39999 429 435.60001 442.20001 448.79999 455.39999 462 468.60001"
                     y="0"
                     id="tspan482"
                     style="font-size:11px;font-variant:normal;font-weight:normal;writing-mode:lr-tb;fill:#000000;fill-opacity:1;fill-rule:nonzero;stroke:none;font-family:FreeMono;-inkscape-font-specification:FreeMono">data = “1d87c4c4e0ee40383c59447f23798d9fefe74fb82480766e”.decode(“hex”) </tspan></text>
</g><g
                 id="g484"><text
                   transform="matrix(1,0,0,-1,65.4,106.5)"
                   id="text486"><tspan
                     x="0 6.5999999 13.2 19.799999 26.4 33 39.599998 46.200001 52.799999 59.400002 66 72.599998 79.199997 85.800003 92.400002 99 105.6 112.2 118.8 125.4 132 138.60001 145.2 151.8 158.39999 165 171.60001 178.2 184.8 191.39999 198 204.60001 211.2 217.8 224.39999 231 237.60001 244.2 250.8 257.39999 264 270.60001 277.20001 283.79999 290.39999 297 303.60001"
                     y="0"
                     id="tspan488"
                     style="font-size:11px;font-variant:normal;font-weight:normal;writing-mode:lr-tb;fill:#000000;fill-opacity:1;fill-rule:nonzero;stroke:none;font-family:FreeMono;-inkscape-font-specification:FreeMono">decrypt(key, data) == “I love ST20 architecture</tspan></text>
</g><g
                 id="g490"><text
                   transform="matrix(1,0,0,-1,375.6,106.5)"
                   id="text492"><tspan
                     x="0"
                     y="0"
                     id="tspan494"
                     style="font-size:11px;font-variant:normal;font-weight:normal;writing-mode:lr-tb;fill:#000000;fill-opacity:1;fill-rule:nonzero;stroke:none;font-family:FreeMono;-inkscape-font-specification:FreeMono">”</tspan></text>
</g></g></g></g></g></g></g></svg>